<?xml version="1.0" encoding="utf-8"?>
<!-- Generator: Adobe Illustrator 25.1.0, SVG Export Plug-In . SVG Version: 6.00 Build 0)  -->
<svg version="1.1" xmlns="http://www.w3.org/2000/svg" xmlns:xlink="http://www.w3.org/1999/xlink" x="0px" y="0px"
	 viewBox="0 0 800 1300" style="enable-background:new 0 0 800 1300;" xml:space="preserve">
<style type="text/css">
	.st0{display:none;}
	.st1{display:inline;fill:url(#SVGID_1_);}
	.st2{display:none;fill:url(#SVGID_2_);}
	.st3{display:none;fill:url(#SVGID_3_);}
	.st4{display:inline;}
	.st5{display:inline;clip-path:url(#SVGID_5_);}
	.st6{fill:url(#SVGID_6_);}
	.st7{fill:url(#SVGID_7_);}
	.st8{fill:#2DA9B1;}
	.st9{fill:#028E94;}
	.st10{fill:#7BD8DD;}
	.st11{fill:#22C4CE;}
	.st12{fill:#98EBEF;}
	.st13{fill:#61BEC3;}
	.st14{display:inline;clip-path:url(#SVGID_9_);}
	.st15{fill:#FFFFFF;}
	.st16{opacity:0.7;}
	.st17{fill:#4E65FF;}
	.st18{font-family:'Poppins-Black';}
	.st19{font-size:54.1331px;}
	.st20{letter-spacing:1;}
</style>
<g id="Background" class="st0">
	<linearGradient id="SVGID_1_" gradientUnits="userSpaceOnUse" x1="-300" y1="650" x2="1100" y2="650">
		<stop  offset="0" style="stop-color:#EDFDFF"/>
		<stop  offset="1" style="stop-color:#A8B3FF"/>
	</linearGradient>
	<rect x="-300" y="-50" class="st1" width="1400" height="1400"/>
</g>
<g id="Objects">
	<radialGradient id="SVGID_2_" cx="430" cy="680" r="467.3281" gradientUnits="userSpaceOnUse">
		<stop  offset="0.85" style="stop-color:#000000"/>
		<stop  offset="0.8634" style="stop-color:#000000;stop-opacity:0.9104"/>
		<stop  offset="1" style="stop-color:#000000;stop-opacity:0"/>
	</radialGradient>
	<circle class="st2" cx="430" cy="680" r="467.33"/>
	<linearGradient id="SVGID_3_" gradientUnits="userSpaceOnUse" x1="400" y1="182.6719" x2="400" y2="1117.3281">
		<stop  offset="0" style="stop-color:#92EFFD"/>
		<stop  offset="1" style="stop-color:#4E65FF"/>
	</linearGradient>
	<circle class="st3" cx="400" cy="650" r="467.33"/>
	<g class="st0">
		<defs>
			<circle id="SVGID_4_" cx="400" cy="650" r="467.33"/>
		</defs>
		<clipPath id="SVGID_5_" class="st4">
			<use xlink:href="#SVGID_4_"  style="overflow:visible;"/>
		</clipPath>
		<g class="st5">
			
				<linearGradient id="SVGID_6_" gradientUnits="userSpaceOnUse" x1="399.9999" y1="779.7055" x2="399.9999" y2="276.5097" gradientTransform="matrix(-1 0 0 1 799.9999 0)">
				<stop  offset="0" style="stop-color:#FFFFFF;stop-opacity:0"/>
				<stop  offset="1" style="stop-color:#FFFFFF"/>
			</linearGradient>
			<path class="st6" d="M58.06,356.24c53.14,1.84,96.91,40.52,106.56,91.3c6.99,0.18,13.74,1.32,20.13,3.28
				c14.76-30.52,46.02-51.58,82.2-51.58c37.42,0,69.57,22.52,83.65,54.74c22.88,3.99,42.68,16.91,55.7,35.03
				c4.25-0.96,8.66-1.47,13.2-1.47c5.46,0,10.75,0.74,15.78,2.12c13.68-22.19,38.21-36.98,66.18-36.98
				c21.37,0,40.73,8.63,54.77,22.59c5.58-2.36,11.58-3.93,17.86-4.54c3.06-52.22,46.37-93.62,99.36-93.62
				c27.05,0,51.58,10.8,69.52,28.31c3.37-0.4,6.8-0.62,10.29-0.62c6.02,0,11.89,0.62,17.56,1.8
				c20.14-47.25,67.02-80.38,121.63-80.38v453.47H-92.45v-503.2C-29.86,276.51,25.33,308.12,58.06,356.24z"/>
			<linearGradient id="SVGID_7_" gradientUnits="userSpaceOnUse" x1="400" y1="853.0663" x2="400" y2="486.7773">
				<stop  offset="0" style="stop-color:#FFFFFF;stop-opacity:0"/>
				<stop  offset="1" style="stop-color:#FFFFFF"/>
			</linearGradient>
			<path class="st7" d="M741.94,566.51c-53.14,1.84-96.91,40.52-106.56,91.3c-6.99,0.18-13.74,1.32-20.13,3.28
				c-14.76-30.52-46.02-51.58-82.2-51.58c-37.42,0-69.57,22.52-83.65,54.74c-22.88,3.99-42.68,16.91-55.7,35.03
				c-4.25-0.96-8.66-1.47-13.2-1.47c-5.46,0-10.75,0.74-15.78,2.12c-13.68-22.19-38.21-36.98-66.18-36.98
				c-21.37,0-40.73,8.63-54.77,22.59c-5.58-2.36-11.58-3.93-17.86-4.54c-3.06-52.22-46.37-93.62-99.36-93.62
				c-27.05,0-51.58,10.8-69.52,28.31c-3.37-0.4-6.8-0.62-10.29-0.62c-6.02,0-11.89,0.62-17.56,1.8
				C9.04,569.62-37.83,536.5-92.45,536.5v316.57h984.89V486.78C829.86,486.78,774.67,518.39,741.94,566.51z"/>
		</g>
	</g>
	<g>
		<polygon class="st8" points="294.46,1118.58 240.66,1248.78 548.81,1248.78 515.63,946.44 329.55,946.44 		"/>
		<g>
			<polygon class="st9" points="515.63,946.44 329.55,946.44 294.46,1118.58 273.24,1169.92 324.32,1137.62 329.55,1115.89 
				457.46,1053.42 457.46,1026.02 520.26,988.61 			"/>
			<rect x="457.46" y="1000.91" class="st9" width="23.31" height="247.88"/>
			<rect x="487.16" y="994.29" class="st9" width="11.66" height="254.49"/>
			<rect x="357.45" y="1000.91" class="st9" width="92.38" height="247.88"/>
			<rect x="315.65" y="1058.18" class="st9" width="33.37" height="190.6"/>
		</g>
		<rect x="215.84" y="1227.24" class="st10" width="368.31" height="43.09"/>
		<polygon class="st9" points="402.16,235.14 388.3,309.99 416.02,309.99 		"/>
		<g>
			<polygon class="st9" points="449.7,342.04 449.7,357.92 524.55,349.98 			"/>
			<polygon class="st9" points="354.62,357.92 354.62,342.04 279.77,349.98 			"/>
		</g>
		<polygon class="st9" points="324.08,264.57 369.9,324.71 387.37,305.94 		"/>
		<polygon class="st9" points="480.24,264.57 434.42,324.71 416.95,305.94 		"/>
		<g>
			<polygon class="st9" points="513.47,306.36 446.17,337.73 440.34,319.2 			"/>
			<polygon class="st9" points="290.85,306.36 358.15,337.73 363.98,319.2 			"/>
		</g>
		<polygon class="st8" points="455.75,391.34 421.87,333.9 402.16,333.9 382.45,333.9 348.57,391.34 338.21,495.46 402.16,495.46 
			466.11,495.46 		"/>
		<polygon class="st11" points="379.73,394.46 424.59,394.46 439.05,493.6 365.27,493.6 		"/>
		<path class="st12" d="M439.36,335.36l-27.86-8.29c-6.11-1.82-12.57-1.82-18.69,0l-27.86,8.29c-5.81,1.73-9.88,7.18-9.88,13.24
			v47.88c0,6.04,2.55,11.85,7,15.93l24.5,22.5c2.44,2.25,5.62,3.48,8.94,3.48h13.27c3.32,0,6.49-1.24,8.94-3.48l24.5-22.5
			c4.45-4.08,7-9.89,7-15.93V348.6C449.23,342.53,445.17,337.09,439.36,335.36z"/>
		<polygon class="st8" points="530.38,586.79 595.77,629.1 575.9,779.11 530.38,816.3 		"/>
		<polygon class="st9" points="535.14,790.93 465.31,741.83 645.29,617.45 647.85,630.6 		"/>
		
			<rect x="511.33" y="575.08" transform="matrix(0.8181 0.5751 -0.5751 0.8181 487.8864 -196.1727)" class="st10" width="85.36" height="195.99"/>
		<polygon class="st9" points="257.65,195.72 238.94,195.72 232.91,29.67 263.68,29.67 		"/>
		<polygon class="st13" points="230.01,87.05 206.15,76.47 290.45,76.47 266.59,87.05 		"/>
		<rect x="206.15" y="38.97" class="st12" width="84.3" height="37.5"/>
		<g>
			<polygon class="st11" points="272.82,179.05 278.43,149.24 278.43,129.68 265.93,118.79 260.87,107.26 255.99,111.57 
				255.99,123.75 262.08,139.94 259.54,143.79 257.65,195.72 241.09,195.72 274.74,462.25 336.29,462.25 			"/>
			<polygon class="st11" points="246.73,159.09 249.5,157.05 248.3,153.56 237.21,148.17 241.93,147.07 250.22,148.64 
				253.23,145.99 252.26,142.99 236.79,136.43 248.3,137.62 253.91,140.98 257.67,138.1 256.95,132.65 248.94,125.76 236.26,121.84 
				239.32,120.63 248.3,120.63 252.46,118.14 250.78,112.7 235.76,108.13 226.18,112.29 227.5,122.07 224.38,126.76 228.82,134.93 
				225.34,139.38 228.82,146.59 225.34,152.72 238.43,181.57 237.54,157.28 			"/>
		</g>
		<polygon class="st12" points="457.46,1032.99 329.55,1095.46 324.32,1117.18 270.42,1151.27 294.99,968.4 282.33,846.92 
			266.57,762.77 288.67,733.19 261.28,645.93 275.22,632.22 259.84,564.99 278.43,525.24 267.77,493.51 240.66,463.26 
			260.92,352.79 269.26,418.82 311.76,352.79 354.72,451.51 428.97,481.13 440.37,469.93 473.96,481.65 503.45,509.85 
			530.38,586.79 553.8,948.2 457.46,1005.58 		"/>
		<polygon class="st8" points="240.66,463.26 269.26,418.82 260.92,352.79 		"/>
		<g>
			<polygon class="st10" points="266.57,762.77 282.33,846.92 431.49,542.07 			"/>
			<polygon class="st10" points="428.97,481.13 354.72,451.51 275.22,632.22 			"/>
			<polygon class="st10" points="334.57,405.21 267.77,493.51 278.43,525.24 			"/>
			<polygon class="st10" points="457.46,719.49 457.46,1005.58 487.16,987.89 			"/>
			<polygon class="st10" points="374.75,1073.38 433.81,662.8 329.55,1095.46 			"/>
			<polygon class="st10" points="288.75,908.54 294.99,968.4 390.44,705.39 			"/>
		</g>
		<polygon class="st11" points="615.97,627.01 631.08,637.67 640.65,654.1 638.89,661.15 634.4,665.4 633.99,669.77 629.35,674.3 
			626.86,680.55 624.3,685.59 620.21,689.2 607.23,706.51 592.99,708.64 610.36,683.93 603.03,677.56 592.41,665.16 594.33,660.35 
			609.04,669.02 604.95,662.52 595.77,648.65 596.73,643.52 601.06,643.04 602.66,636.79 606.03,635.99 623.98,649.45 610.84,632.3 
			611.64,627.66 		"/>
		<path class="st13" d="M402.16,328.58c24.16,0,44.05,16.74,46.75,38.29c6.49-7.03,10.31-15.58,10.31-24.81
			c0-23.91-25.55-43.29-57.06-43.29s-57.06,19.38-57.06,43.29c0,9.23,3.82,17.78,10.31,24.81
			C358.11,345.32,378,328.58,402.16,328.58z"/>
		<path class="st9" d="M355.09,371.88c0-23.91,21.08-43.29,47.07-43.29s47.07,19.38,47.07,43.29c0,3.34-0.43,6.6-1.21,9.72
			c7.03-7.2,11.19-16.1,11.19-25.75c0-23.91-25.55-43.29-57.06-43.29s-57.06,19.38-57.06,43.29c0,9.65,4.16,18.55,11.19,25.75
			C355.51,378.47,355.09,375.22,355.09,371.88z"/>
		<path class="st13" d="M402.16,324.5c-31.51,0-57.06,22.26-57.06,49.73c0,6.01,1.23,11.78,3.47,17.12
			c25.74-11.92,45.33-32.58,53.59-57.44c8.25,24.86,27.85,45.52,53.59,57.44c2.24-5.34,3.47-11.1,3.47-17.12
			C459.22,346.76,433.67,324.5,402.16,324.5z"/>
	</g>
	<g class="st0">
		<defs>
			<circle id="SVGID_8_" cx="400" cy="650" r="467.33"/>
		</defs>
		<clipPath id="SVGID_9_" class="st4">
			<use xlink:href="#SVGID_8_"  style="overflow:visible;"/>
		</clipPath>
		<g class="st14">
			<rect x="-86.11" y="1350" class="st15" width="972.22" height="0"/>
			<g class="st16">
				<path class="st15" d="M577.61,811.77c-331.86,0-331.86-117.47-663.71-117.47V1350h972.21V761.25
					C810.25,787.64,728.01,811.77,577.61,811.77z"/>
			</g>
			<g class="st16">
				<path class="st15" d="M222.39,822.68c331.86,0,331.86-117.47,663.71-117.47V1350H-86.11V772.17
					C-10.25,798.55,71.99,822.68,222.39,822.68z"/>
			</g>
			<path class="st15" d="M-86.11,823.27V1350h972.21V875.42c-93.54,32.8-180.25,68.02-366.45,68.02
				C204.58,943.44,174.39,842.59-86.11,823.27z"/>
		</g>
	</g>
</g>
<g id="Layer_3" class="st0">
	<text transform="matrix(1 0 0 1 344.3519 1017.6204)" class="st4"><tspan x="0" y="0" class="st17 st18 st19 st20">NEW</tspan><tspan x="-9.04" y="54.96" class="st17 st18 st19 st20">YORK</tspan></text>
</g>
</svg>
